<mxfile host="app.diagrams.net" modified="2022-02-10T11:45:01.050Z" agent="5.0 (Windows NT 10.0; Win64; x64) AppleWebKit/537.36 (KHTML, like Gecko) Chrome/98.0.4758.82 Safari/537.36" etag="qPA909MIhULCkrzxWMjk" version="16.5.3" type="github">
  <diagram id="J_tuJS_NJRddr4_e2aGN" name="Page-1">
    <mxGraphModel dx="1015" dy="517" grid="1" gridSize="10" guides="1" tooltips="1" connect="1" arrows="1" fold="1" page="1" pageScale="1" pageWidth="850" pageHeight="1100" math="0" shadow="0">
      <root>
        <mxCell id="0" />
        <mxCell id="1" parent="0" />
      </root>
    </mxGraphModel>
  </diagram>
</mxfile>
